<svg id="Layer_1" data-name="Layer 1" xmlns="http://www.w3.org/2000/svg" viewBox="0 0 1087 1087"><defs><style>.cls-1{fill:#fff;stroke-width:3px;}.cls-1,.cls-2{stroke:#000;}.cls-2{fill:none;stroke-width:9px;}</style></defs><title>nmu-button</title><circle class="cls-1" cx="543.5" cy="543.5" r="542"/><ellipse class="cls-2" cx="543.5" cy="681.55" rx="322.4" ry="99.14"/><path d="M732.18,679.65,776.34,751h22.83V643H777.85v72.41h-.48L733.05,643H710.54V751h21.32V679.65Zm-92.53,54.27c-24.91,0-29.76-23.87-29.76-36.76,0-21.88,10.1-37.16,29.76-37.16s29.51,15.28,29.51,37.08c-.08,21.4-10.18,36.84-29.51,36.84m0,19.25c43.12,0,52.75-37,52.75-55.77,0-32.07-19-56.57-52.91-56.57-34.77,0-52.76,26-52.76,56.65,0,35.24,22.52,55.69,52.92,55.69M568.59,642.9H545.76V751h22.83Zm-112.5,36.75L500.25,751h22.83V643H501.76v72.41h-.48L457,643H434.45V751h21.32V679.65Zm-88.88,54.27c-19.65,0-22-14.24-22-28.09V643H322.58v62.46c0,9.87.79,17.51,2.54,23.4,3,9.54,12.41,24.34,41.85,24.34s39.15-14.8,42.17-24.34c1.83-5.89,2.55-13.61,2.55-23.4V643H389v62.86c.16,13.93-2.14,28.09-21.8,28.09" transform="translate(-17.38 -17.05)"/><path d="M863.46,467.85,841.82,542.4h-.16l-22.52-74.55H786.2V576h21.17V495.22h.32L831.56,576h19.65l23.71-80.76h.32V576h21.32V467.85Zm-144.57,91c-19.65,0-22-14.24-22-28.08V467.93H674.26v62.46c0,9.87.79,17.5,2.54,23.39,3,9.55,12.41,24.35,41.85,24.35s39.15-14.8,42.17-24.35c1.83-5.89,2.55-13.6,2.55-23.39V467.93H740.69v62.86c.16,13.92-2.15,28.08-21.8,28.08M653.17,576V557H593.74V529h53.54V510.5H593.74V487h57.92v-19h-80.6V576.06h82.11ZM550.05,499.52c-.31-22.36-17.66-33.74-42.48-33.74-22.36,0-39.79,12.1-39.79,31.11,0,9.55,3.5,16,10,21.49,7.56,6.36,29.76,11.77,39.94,14.64,8.91,2.54,13.29,6.2,13.29,12.57,0,9.86-11.38,14.08-21.17,14.08-13.44,0-22.83-5.89-23.71-20.29l-22,1c1.2,25.38,19.66,37.63,45.36,37.63,25.06,0,44-10.74,44-33.9,0-13-5.89-21.32-14.64-26.17-9.71-5.41-32.94-10.43-41.46-13.77-5.89-2.23-7.56-4.85-7.56-8.91,0-8,8.76-11.46,17.35-11.46,11.62,0,19.17,4.22,20.53,16.16ZM402.86,558.87c-19.65,0-21.88-14.24-21.88-28.08V467.93H358.3v62.46c0,9.87.8,17.5,2.55,23.39,3,9.55,12.41,24.35,41.85,24.35s39.15-14.8,42.17-24.35c1.83-5.89,2.54-13.6,2.54-23.39V467.93H424.74v62.86c0,13.92-2.23,28.08-21.88,28.08m-100.41-91L280.8,542.4h-.15l-22.52-74.55H225.19V576h21.16V495.22h.32L270.54,576h19.65l23.71-80.76h.32V576h21.33V467.85Z" transform="translate(-17.38 -17.05)"/><path d="M739.1,340.55H716.43l-17.11,75.9h-.16l-18.78-75.9H656.19L637,415.34h-.16l-16.79-74.79h-23L624.29,448.6h23.87L664.07,386l3.66-15.6h.32l3.74,15.6,16.15,62.62h23.39Zm-153,108.13v-19H526.66v-28h53.55V383.19H526.66V359.64h57.93v-19H504.07V448.68ZM414.4,377.31l44.15,71.37h22.84V340.55H460.07V413h-.48l-44.32-72.4H392.75V448.6h21.33V377.23h.32Z" transform="translate(-17.38 -17.05)"/><path d="M442.32,1016.85l1.36,22.2,10.26,2.79-3.5-35.49a14.4,14.4,0,0,1,.32-4.93c.87-3.19,3.18-4.14,6.36-3.34a34.43,34.43,0,0,1,5.09,1.83l1.52-7.8a41.4,41.4,0,0,0-5.49-2.07c-6.61-1.83-11.06-.64-15.28,5.41L417.1,1032l9.95,2.71,12.09-18.62,2.86-4.46h.08Zm18.22,26.74c4,.79,8-1.2,11.06-4.86l.24.08-1.11,6,9.23,1.75,7-36.44-9.79-1.91-3,15.91c-1.19,6.13-3.66,12.26-10.5,10.9a8.89,8.89,0,0,1-3.9-1.75l-3.19,8.6a10.15,10.15,0,0,0,4,1.75m43.37,15.11,1-9,5.33.64.88-7.32-5.33-.64,2.46-21.48c.64-5.73-3.5-9.15-9.39-9.87a36,36,0,0,0-7.08.16l-.48,7.72a14.21,14.21,0,0,1,3.59-.16c2.38.24,3.34,1.43,3.1,3.58l-2.15,18.94-7-.8-.88,7.32,7.08.8-1.43,12.73Zm31-44.63c-12.57-.8-17.27,5.49-17.67,11.61-.47,7.48,5.49,9.79,12.26,11.86,2.3.72,5,1.51,7.08,2.23,2.31.79,3.42,2,3.34,3.34-.16,2.31-3.1,3.18-6.45,2.94-3.89-.23-6.28-1.75-6.6-5.25l-9.47.24c.8,7.88,6.61,11.22,15.68,11.86,9.31.55,16.07-3,16.55-10.59.39-6.36-4.54-8.83-10-10.82-2.47-.87-5.09-1.67-7.88-2.54-3.34-1-4.53-2.39-4.37-4.06.16-2.55,2.7-4.14,7.16-3.9,4.22.24,7.24,2.39,7.48,6.52l9.78-.07c-.63-8.44-7.55-12.74-16.86-13.37M594.29,1052l-.87-23.71c-.32-9.31-4.3-14.16-13.53-13.84a13.84,13.84,0,0,0-11.46,6.76h-.23l-.16-5.33-9.47.32,1.43,37.07,10-.39-.8-20.85c-.16-4.69,1.75-9.55,7.56-9.79,5.09-.16,6.44,3.5,6.6,7.88l.88,22.2Zm18.94-20.61c-.8-6.84,1.51-11.93,7.08-12.57,6.45-.71,9.31,5.17,10,11.14.79,6.68-1.67,11.62-7.24,12.25-5.73.72-9.08-3.5-9.87-10.82m-2.47-18.3-9.31,1,5.81,50.84,9.87-1.11-2.07-18.46h.08a13.43,13.43,0,0,0,11.46,4c10.5-1.19,14.95-10.66,13.76-20.84s-7.48-18.94-18.22-17.74a13.19,13.19,0,0,0-10.66,7.24h-.08Zm44-6.92-9.78,2.15,4.85,22.36c1.91,8.91,5.89,14.08,15.91,11.93a13.82,13.82,0,0,0,10.19-8.59h.16l1.11,5.25,9.15-2-7.88-36.2-9.78,2.15,3.82,17.66a25.85,25.85,0,0,1,.87,7.32,7.22,7.22,0,0,1-6,6.21c-4.45,1-6.92-2.15-7.79-6.29Zm31.91-7.88,10.58,35.57,9.63-2.86L696.3,995.45Zm12.09,40.74,2.47,8.36,9.63-2.87-2.47-8.35ZM761.3,990.6c-4.77-11.78-14.56-14.88-24.35-10.82-7.71,3.1-11.53,8.83-11.06,17.18l9-2.78a7.08,7.08,0,0,1,4.78-7.32c4.69-1.91,8.91-.24,11.46,5.41l-23.79,9.7a11.59,11.59,0,0,0,.55,1.52c4.7,11.45,13.61,16.55,24.35,12.25,8.67-3.82,13.92-13.37,9.07-25.14m-12.17,18.06c-4.3,1.75-8.36-.08-10.27-4.7l14.48-5.88c1,2.54,1.44,8.27-4.21,10.58m28.24-4.38c3.58-1.91,5.57-5.89,5.65-10.74l.16-.08,2.87,5.41,8.27-4.37-17.27-32.79-8.83,4.62,7.56,14.32c2.87,5.49,4.78,11.86-1.43,15.12a9.19,9.19,0,0,1-4.14,1l2.87,8.68a9.12,9.12,0,0,0,4.29-1.2m56.1-33L820.9,951.13c-4.94-7.87-10.75-10.18-18.54-5.33a13.83,13.83,0,0,0-6.61,11.54l-.16.08-2.86-4.54-8,5,19.58,31.5,8.51-5.33-11-17.66c-2.47-4-3.18-9.15,1.75-12.25,4.3-2.71,7.32-.16,9.63,3.58l11.69,18.85ZM859.33,964,854,956.7l4.38-3.18-4.38-6-4.29,3.18L837,933.23c-3.42-4.69-8.75-4.38-13.61-.88a33.4,33.4,0,0,0-5.09,4.86l4.85,6a15.14,15.14,0,0,1,2.47-2.55c2-1.43,3.5-1.19,4.69.56l11.22,15.43-5.73,4.14,4.3,6,5.73-4.14,7.56,10.34ZM840.55,920.5l32.06,39.94,7.8-6.28-32.06-39.95ZM905.71,913l-16.15-17.34c-6.37-6.85-12.49-7.88-19.25-1.68a14,14,0,0,0-4.3,12.58l-.16.15-3.66-3.89-6.92,6.44,25.22,27.21,7.32-6.84-14.16-15.28C870.46,911,868.79,906,873,902c3.74-3.42,7.16-1.59,10.11,1.67l15.11,16.23ZM895,890.42l7.24-6.6c-2.94-3.82-3-7.48-.16-10.5,3.9-4.14,9.15-2.79,14.32,2.07,4.94,4.61,6.61,9.78,2.71,14-2.71,2.86-6,3.26-9.31,1l-6,7.72c7.32,4.93,15,2.87,21-3.66,7.88-8.43,6.84-18.7-1.91-26.81-8.36-7.8-18.94-7.88-26.42.16-6.44,7-7.16,15-1.43,22.59m65.56-73.51c-10.42-7.25-20.29-4.54-26.33,4.21-4.78,6.84-4.94,13.69.08,20.45l6-7.24a7,7,0,0,1,0-8.75c2.87-4.22,7.32-5,12.57-1.75l-14.64,21.08c.4.32.8.64,1.28,1,10.18,7.08,20.45,6.44,27-3,5.33-7.79,4.54-18.69-6-25.93m-.4,21.8c-2.62,3.82-7.08,4.53-11.13,1.67l8.91-12.81c2.22,1.51,5.73,6.12,2.22,11.14m-11-38.27,44,26.09,5.1-8.59-44-26.1Zm23.39-27.53c2.94-5.57,9.23-4.94,14.72-2,6,3.18,8.67,8.11,6.2,12.81s-7.95,5.33-14.48,1.91c-6.2-3.35-8.83-8.2-6.44-12.73m26.25,17a13.9,13.9,0,0,0,.56-12.41v-.08l16.39,8.67,4.7-8.75-45.28-24-4.37,8.28,4.45,2.38v.08c-4.85.48-8.59,3.42-10.9,7.72-5.57,10.5,3,19,10.19,22.84,9.31,4.85,19.57,4.13,24.26-4.78m-8-58.8c1.19-3,3.66-4.85,6.76-3.58,3.42,1.44,2.94,4.86,2.31,8.36-.56,2.54-1.2,5.73-1,7.24L996.18,742c-3-1.19-4.94-2.46-5.73-4.93a8.63,8.63,0,0,1,.24-6m28.88,13.93c3.42-8.28,3-15.44-4.3-19.81l-4.29,8.51c2.46,1.75,3.82,4.14,2.22,8s-3.42,5.8-7.24,4.21l-1.43-.55c-.55-2.23.64-6.45,1.67-11,1.83-7.48,1.28-13.53-5.65-16.4-6.44-2.62-12.09.56-14.95,7.32a16.42,16.42,0,0,0-.16,12.89,23.67,23.67,0,0,0-3.9-.47l-3.82,9.31c3.9-.16,7.8,1.27,11.85,2.94l14.25,5.81c7.16,2.86,12.33-2.39,15.75-10.82m21.64-36.28-8.59-2.79,1.67-5.09-7-2.31-1.67,5.09L1005.09,697c-5.49-1.83-9.71,1.59-11.54,7.24a37.72,37.72,0,0,0-1.27,7l7.48,2a13.41,13.41,0,0,1,.56-3.5c.79-2.31,2.06-3,4.13-2.31l18.14,5.89-2.22,6.76,7,2.31,2.23-6.76,12.17,4Zm-40.89-24.19,35.8,9.7,2.63-9.62L1002.94,675Zm41,11.14,8.44,2.3,2.62-9.62-8.43-2.31Zm7-55.78L1025,635.5c-9.15-1.75-14.8,1-16.47,10a13.79,13.79,0,0,0,4,12.65l-.08.24-5.25-1-1.75,9.31,36.44,7,1.91-9.87-20.45-3.9c-4.62-.87-8.91-3.9-7.8-9.62,1-5,4.86-5.49,9.15-4.7l21.8,4.22Zm-14-40.34c7.08.64,11.54,4.06,11,9.71-.48,5.49-5.65,8-12.33,7.4-7.08-.64-11.54-4.22-11.06-9.79s5.33-7.95,12.41-7.32m16.15,28.33.8-9.31-5.09-.48V618c4.37-2.23,6.52-5.89,7-10.58.95-10.66-7.64-16.95-17.83-17.82s-20,3.5-20.84,13.68a13.32,13.32,0,0,0,4.45,11.7v.16l-18.06-1.59-.87,9.94Zm-14.56-80.28c-12.73-.16-19.33,7.63-19.49,18.22-.08,8.27,3.58,14.08,11.53,16.86l.88-9.38c-3-.88-4.93-3.66-4.93-7.25.08-5.09,3.26-8.27,9.39-8.43l-.32,25.7c.47,0,1,.08,1.59.08,12.41.16,20.53-6.13,20.69-17.66.23-9.39-6.53-18-19.34-18.14m11.94,18.3c-.08,4.61-3.35,7.71-8.36,7.63l.16-15.59c2.79,0,8.28,1.83,8.2,8m-17.59-80.84c-12.65,1.43-18.22,10-17,20.53,1,8.27,5.34,13.52,13.61,15.35l-.32-9.39a7.05,7.05,0,0,1-5.81-6.52c-.55-5,2.23-8.6,8.28-9.63L1031.9,521a10.13,10.13,0,0,1,1.59-.08c12.34-1.43,19.58-8.67,18.3-20.13-1.11-9.55-8.91-17.11-21.56-15.67m14.08,16.63c.56,4.61-2.3,8-7.32,8.59l-1.75-15.52c2.71-.31,8.36.88,9.07,6.93m3.43-27.53c-.8-4-4.06-7-8.6-8.52l-.08-.24,6-1.11-1.75-9.23-36.44,7,1.91,9.79,15.91-3c6.13-1.2,12.73-1.12,14,5.72a11.38,11.38,0,0,1-.16,4.3l9.15-.24a9.57,9.57,0,0,0,.08-4.45m-31.91-50.93c6.45-1.75,12-.15,13.61,5.65s-2.47,10-8.84,11.78-12,.16-13.6-5.65,2.47-10,8.83-11.78m-2.39-9.78c-10.66,2.86-17.34,11.38-14,23.63,3.26,12,13.92,16.07,23.79,13.45,11.94-3.27,16.47-13.29,13.69-23.64-2.79-10.66-12.34-16.47-23.48-13.44m-6.84-48.78c2.31,5.57-2.47,7.17-6.76,8.92l-19,7.79,3.82,9.31,17.74-7.24c6.53-2.7,11-2.23,12.89,2.47,2.07,5-2.07,6.92-6.36,8.67l-19.5,8,3.82,9.31,22.44-9.23c7.8-3.19,11.14-9,7.8-17.11-1.75-4.38-5.49-7-9.87-8.12,3.11-3.5,3.34-7.79,1.51-12.09a13.6,13.6,0,0,0-9.78-8.27l-.08-.16,4.69-1.91-3.5-8.75-34.29,14.08,3.74,9.23,16.31-6.69c4.61-1.91,11.62-4.93,14.4,1.83M954,317.55c-1.67-2.7-1.75-5.81,1-7.56,3.19-2,5.65.4,8.12,3,1.83,1.91,4,4.29,5.33,4.93l-2.39,1.51c-2.7,1.67-4.93,2.55-7.32,1.83a9.14,9.14,0,0,1-4.77-3.74m28.16-15.35c-4.77-7.56-10.74-11.38-18.53-8l4.37,8.51c2.87-.95,5.57-.71,7.8,2.87s2.7,6.2-.8,8.35l-1.35.8c-2.15-.88-4.85-4.22-8-7.8-5-5.89-10.26-8.91-16.62-4.93-5.89,3.66-6.69,10.18-2.71,16.39A16.23,16.23,0,0,0,956.71,326a28.44,28.44,0,0,0-2.7,2.86l5.33,8.51c2.15-3.26,5.57-5.65,9.31-7.95l13.05-8.2c6.52-4.06,5.33-11.3.47-19M955,262.49c-2.54-3.18-6.84-4.29-11.61-3.42l-.16-.16,4.69-3.82-5.89-7.32-28.88,23.32,6.29,7.71,12.57-10.18c4.85-3.9,10.66-7,15.12-1.51A9.33,9.33,0,0,1,949,271l8-4.46a9.14,9.14,0,0,0-1.91-4.06M903.4,232.26c4.86-4.54,10.59-5.73,14.72-1.35s2.47,10-2.3,14.48-10.59,5.73-14.72,1.35-2.47-10,2.3-14.48m-6.68-7.56c-8,7.56-10,18.14-1.35,27.37,8.51,9.07,19.81,7.72,27.29.72,9.07-8.44,8.35-19.5,1.11-27.3-7.48-8-18.61-8.67-27-.79m-33.42-5.17,14.25-16.07,16,14.16,5.73-6.45-16-14.16,8-9,18.46,16.39,6-6.76-26.58-23.47-33.81,38.19Zm-57.84-73.84a26.55,26.55,0,1,0,36.76-7.64,26.4,26.4,0,0,0-36.76,7.64m-47.18-23.63a50,50,0,0,1,5.88-10.18c2.47-3,5.34-4.14,8.2-2.79,3,1.43,3.82,4.14,3.18,8.36-.47,3.1-2.15,7-4,10.9a46.93,46.93,0,0,1-6,10.42c-2.63,3-5.33,4.14-8.36,2.78-2.86-1.35-3.9-4.05-3.1-8.27.56-3.26,2.23-7.24,4.14-11.22M749,117.68c-4.14,8.92-5.41,15.84-4.14,20.69a15.3,15.3,0,0,0,8.91,10.34c4.54,2.07,9.15,2.47,13.53.32,4.77-2.3,9.39-7.72,13.52-16.55s5.26-15.67,3.9-20.84c-1.19-4.78-4.37-8-8.91-10.19s-9.07-2.38-13.37-.32c-4.77,2.47-9.3,7.72-13.44,16.55M745.86,89.2l-7.55-2.87c-3.43,6.45-11.7,6.77-17.75,5.57l-3,7.88a27.46,27.46,0,0,0,13.45.32l-12.58,33.1,9.39,3.58ZM712.21,77.34,704.49,75c-2.94,6.68-11.14,7.63-17.26,6.84L684.84,90a27.48,27.48,0,0,0,13.44-.71l-10,33.89,9.63,2.87ZM662.72,64.22c-10.5-2-18.22,3.18-20.61,14l9.47,2.31c.95-4.78,3.9-9.15,9.39-8.12,4.37.88,6.2,4,5.41,8.36-1.83,9.3-20.93,14.32-26.5,20.44a21.34,21.34,0,0,0-5.17,9.71l34.93,6.68,1.67-8.67-21.24-4.06c8.27-7.48,23.71-9.46,26.25-22.83.88-4.86-.23-15.28-13.6-17.82m-53.15,43.52,4.53-51-9.94-.88-4.54,51Zm-36.2-8.28c-3.19-.08-5.81-1.83-5.73-5.09.16-3.74,3.5-4.45,7.08-5,2.63-.4,5.73-.88,7.08-1.59l-.08,2.86c-.08,3.18-.64,5.49-2.62,7.08a10.2,10.2,0,0,1-5.73,1.75m3.18-31.9C567.64,67.24,561,70,559.44,78.38l9.47,1.11c.8-2.86,2.55-5,6.76-4.85s6.61,1.27,6.45,5.33L582,81.56c-1.91,1.27-6.21,1.67-10.9,2.15-7.72.87-13.13,3.42-13.45,11-.24,6.92,4.62,11.22,12,11.46a16.34,16.34,0,0,0,12.17-4.3,27,27,0,0,0,.88,3.82l10,.4c-1.51-3.66-1.51-7.8-1.35-12.18L592,78.54c.31-7.64-6.37-10.66-15.44-11M552.44,91.43l-9.79-.16c-.47,4.85-2.86,7.48-7.08,7.8-5.65.31-8.59-4.3-9.07-11.38-.39-6.69,1.91-11.7,7.64-12,3.9-.24,6.53,1.75,7.48,5.65l9.71-1.43c-2-8.67-9-12.33-17.83-11.78-11.53.72-17.82,8.92-17,20.77.71,11.46,8.35,18.7,19.33,18,9.63-.63,15.6-6,16.63-15.43M482.58,93c-.87-6.61,1.36-12,7.32-12.81s9.63,3.74,10.51,10.26-1.36,12-7.32,12.81S483.46,99.54,482.58,93m-10,1.11c1.51,10.9,9.07,18.62,21.64,16.87,12.33-1.75,17.74-11.78,16.31-22C508.76,76.79,499.37,71,488.79,72.49,477.89,74,471,82.75,472.56,94.13m-.08,19.18-2.15-8.75-24.67,6-9.94-41L425.3,72.17l12.09,49.73ZM392.91,80.92l-9.86,4.3,6.92,36.2h-.08L367.37,92.06l-10.5,4.62,5.81,36.12h-.08l-21.48-29.28-9.95,4.38,32.3,41.77,10.35-4.54L368.88,115l-1.35-7.48.16-.08,4.62,6,18.85,24.11,10.19-4.46Zm-65.64,65.17L315.57,153l-3.81-19.73.15-.08Zm16.47,13.52,9.87-5.8-43.13-34.06-9.7,5.73,9.07,54,9.54-5.65-2.3-12,17.1-10.1Zm-59,28.25c-7.56,5.49-12.33.64-16.23-4.69L251,159.06l-8.67,6.28,17.42,23.95a39.66,39.66,0,0,0,7.48,8.28c3.82,2.78,11.54,5.89,22.83-2.39s10.9-16.55,9.39-21.08a36.89,36.89,0,0,0-5.57-9.71l-17.42-23.87-8.67,6.28,17.5,24.11c3.9,5.41,7,11.46-.56,17" transform="translate(-17.38 -17.05)"/></svg>